<svg xmlns="http://www.w3.org/2000/svg" width="32.575" height="22.803" viewBox="0 0 32.575 22.803">
  <path id="Icon_awesome-wave-square" data-name="Icon awesome-wave-square" d="M24.228,25.053H16.491a1.832,1.832,0,0,1-1.832-1.832V5.508H9.773v7.94A1.832,1.832,0,0,1,7.94,15.28H.814A.814.814,0,0,1,0,14.466V12.837a.814.814,0,0,1,.814-.814h5.7V4.082A1.832,1.832,0,0,1,8.347,2.25h7.737a1.832,1.832,0,0,1,1.832,1.832V21.8H22.8v-7.94a1.832,1.832,0,0,1,1.832-1.832h7.126a.814.814,0,0,1,.814.814v1.629a.814.814,0,0,1-.814.814h-5.7v7.94A1.832,1.832,0,0,1,24.228,25.053Z" transform="translate(0 -2.25)" fill="#96beb9"/>
</svg>
