<svg xmlns="http://www.w3.org/2000/svg" width="72.363" height="79.24" viewBox="0 0 72.363 79.24">
  <g id="Icon_feather-codesandbox" data-name="Icon feather-codesandbox" transform="translate(-2.451 -1.408)">
    <path id="Path_43883" data-name="Path 43883" d="M72.765,56.09V25.75a7.585,7.585,0,0,0-3.792-6.561L42.425,4.019a7.585,7.585,0,0,0-7.585,0L8.292,19.189A7.585,7.585,0,0,0,4.5,25.75V56.09a7.585,7.585,0,0,0,3.792,6.561L34.84,77.821a7.585,7.585,0,0,0,7.585,0l26.547-15.17A7.585,7.585,0,0,0,72.765,56.09Z" transform="translate(0 0)" fill="none" stroke="#fff" stroke-linecap="round" stroke-linejoin="round" stroke-width="3"/>
    <path id="Path_43884" data-name="Path 43884" d="M11.25,6.315l17.066,9.86,17.066-9.86" transform="translate(10.316 5.062)" fill="none" stroke="#fff" stroke-linecap="round" stroke-linejoin="round" stroke-width="3"/>
    <path id="Path_43885" data-name="Path 43885" d="M21.566,47.543V27.86L4.5,18" transform="translate(0 22.92)" fill="none" stroke="#fff" stroke-linecap="round" stroke-linejoin="round" stroke-width="3"/>
    <path id="Path_43886" data-name="Path 43886" d="M41.816,18,24.75,27.86V47.543" transform="translate(30.949 22.92)" fill="none" stroke="#fff" stroke-linecap="round" stroke-linejoin="round" stroke-width="3"/>
    <path id="Path_43887" data-name="Path 43887" d="M4.9,10.44,38.013,29.592,71.122,10.44" transform="translate(0.619 11.366)" fill="none" stroke="#fff" stroke-linecap="round" stroke-linejoin="round" stroke-width="3"/>
    <path id="Path_43888" data-name="Path 43888" d="M18,56.228V18" transform="translate(20.632 22.92)" fill="none" stroke="#fff" stroke-linecap="round" stroke-linejoin="round" stroke-width="3"/>
  </g>
</svg>
